<svg width="110" height="110" viewBox="0 0 110 110" fill="none" xmlns="http://www.w3.org/2000/svg">
<path d="M55 0C24.64 0 0 24.64 0 55C0 85.36 24.64 110 55 110C85.36 110 110 85.36 110 55C110 24.64 85.36 0 55 0ZM55.33 93.5V82.445H55C47.96 82.445 40.92 79.75 35.53 74.415C31.0532 69.9335 28.2586 64.0454 27.6174 57.7435C26.9762 51.4416 28.5276 45.1113 32.01 39.82L38.06 45.87C34.155 53.185 35.145 62.425 41.305 68.585C45.155 72.435 50.215 74.25 55.275 74.14V62.37L70.84 77.935L55.33 93.5ZM77.935 70.18L71.885 64.13C75.79 56.815 74.8 47.575 68.64 41.415C66.8546 39.6149 64.7295 38.1871 62.3881 37.2147C60.0466 36.2422 57.5354 35.7444 55 35.75H54.67V47.575L39.105 32.065L54.67 16.5V27.61C61.82 27.5 69.025 30.085 74.47 35.585C83.82 44.935 84.975 59.51 77.935 70.18Z" fill="black"/>
</svg>
